<svg width="32" height="32" viewBox="0 0 32 32" fill="none" xmlns="http://www.w3.org/2000/svg">
<path d="M16 2.66671C8.63599 2.66671 2.66666 8.63604 2.66666 16C2.66666 23.364 8.63599 29.3334 16 29.3334C23.364 29.3334 29.3333 23.364 29.3333 16C29.3333 8.63604 23.364 2.66671 16 2.66671ZM16 26.6667C10.1093 26.6667 5.33332 21.8907 5.33332 16C5.33332 10.1094 10.1093 5.33338 16 5.33338C21.8907 5.33338 26.6667 10.1094 26.6667 16C26.6667 21.8907 21.8907 26.6667 16 26.6667Z" fill="#FF476E"/>
<path d="M22.6667 14.6667L13.8853 14.6667L16.9427 11.6093L15.0573 9.724L8.78134 16L15.0573 22.276L16.9427 20.3907L13.8853 17.3333L22.6667 17.3333L22.6667 14.6667Z" fill="#FF476E"/>
<path opacity="0.3" d="M4 16C4 17.5759 4.31039 19.1363 4.91345 20.5922C5.5165 22.0481 6.40042 23.371 7.51472 24.4853C8.62902 25.5996 9.95189 26.4835 11.4078 27.0866C12.8637 27.6896 14.4241 28 16 28C17.5759 28 19.1363 27.6896 20.5922 27.0866C22.0481 26.4835 23.371 25.5996 24.4853 24.4853C25.5996 23.371 26.4835 22.0481 27.0866 20.5922C27.6896 19.1363 28 17.5759 28 16C28 14.4241 27.6896 12.8637 27.0866 11.4078C26.4835 9.95189 25.5996 8.62902 24.4853 7.51472C23.371 6.40042 22.0481 5.5165 20.5922 4.91345C19.1363 4.31039 17.5759 4 16 4C14.4241 4 12.8637 4.31039 11.4078 4.91345C9.95189 5.5165 8.62902 6.40042 7.51472 7.51472C6.40041 8.62902 5.5165 9.95189 4.91344 11.4078C4.31039 12.8637 4 14.4241 4 16Z" fill="#FF476E"/>
</svg>
