<svg width="32" height="32" viewBox="0 0 32 32" fill="none" xmlns="http://www.w3.org/2000/svg">
<path opacity="0.3" d="M17.3334 24H21.3334V20C21.3334 19.2 21.8667 18.6667 22.6667 18.6667H25.3334V4H6.66675V28H16.0001V25.3333C16.0001 24.5333 16.5334 24 17.3334 24Z" fill="white"/>
<path d="M14.6667 8C13.9595 8 13.2812 8.28095 12.7811 8.78105C12.281 9.28115 12.0001 9.95942 12.0001 10.6667C12.0001 11.3739 12.281 12.0522 12.7811 12.5523C13.2812 13.0524 13.9595 13.3333 14.6667 13.3333C15.374 13.3333 16.0523 13.0524 16.5524 12.5523C17.0525 12.0522 17.3334 11.3739 17.3334 10.6667C17.3334 9.95942 17.0525 9.28115 16.5524 8.78105C16.0523 8.28095 15.374 8 14.6667 8ZM10.6667 17.2C10.6667 15.6 13.3334 14.6667 14.6667 14.6667C16.0001 14.6667 18.6667 15.4667 18.6667 17.2V18.6667H10.6667V17.2ZM20.0001 26.6667L25.3334 32L30.6667 26.6667H20.0001Z" fill="white"/>
<path d="M24 21.3333H26.6667V28H24V21.3333Z" fill="white"/>
<path d="M15.9999 26.6667H7.99992V5.33335H23.9999V18.6667H26.6666V5.33335C26.6666 3.86669 25.4666 2.66669 23.9999 2.66669H7.99992C6.53325 2.66669 5.33325 3.86669 5.33325 5.33335V26.6667C5.33325 28.1334 6.53325 29.3334 7.99992 29.3334H18.7999L15.9999 26.6667Z" fill="white"/>
</svg>
