<svg width="97" height="96" viewBox="0 0 97 96" fill="none" xmlns="http://www.w3.org/2000/svg">
<path fill-rule="evenodd" clip-rule="evenodd" d="M11.8371 5.51223C10.4391 4.18085 10.7387 1.01882 13.8009 2.51663C15.6315 3.41531 22.6878 8.97383 28.6791 13.8999C30.31 15.2313 33.5053 17.4614 31.6081 19.7913C29.7774 22.0546 27.148 19.3586 25.3173 17.8941C18.4607 12.3356 11.8371 5.51223 11.8371 5.51223ZM19.9252 50.3465C18.8268 50.1468 19.6922 49.6475 19.9918 49.5144C22.9208 48.2829 25.3839 45.9197 26.0829 42.7576C27.3144 36.8996 20.6908 32.2397 16.8298 28.3121C11.4044 22.8535 5.08032 16.6958 3.38281 15.6307C0.487052 13.8334 -0.145351 16.9288 1.11946 18.4266C1.11946 18.4266 6.97754 25.8824 13.2683 32.1066C19.5591 38.3308 21.889 42.7576 14.7661 46.3856C7.64323 50.0469 9.40731 54.2408 16.3305 55.5389C51.5455 62.1292 60.3327 29.1775 42.2592 13.7335C37.333 9.53966 29.7774 4.04771 27.0481 2.05064C24.3521 0.0202856 21.5895 2.28363 24.2522 4.81326C26.915 7.34288 30.7427 9.2401 37.2332 16.363C50.9797 31.4409 39.5631 52.0773 19.9252 50.3465ZM3.31624 9.53966C1.95157 8.175 2.35099 5.01297 5.3466 6.57734C9.07447 8.50784 20.2914 17.8941 24.3854 22.2544C28.1798 26.2818 24.2855 28.8114 20.957 26.2485C19.2595 24.9504 18.1611 23.619 16.4969 22.2211C9.74016 16.5294 3.31624 9.53966 3.31624 9.53966Z" fill="#876BFA"/>
<path fill-rule="evenodd" clip-rule="evenodd" d="M6.04555 84.6297C4.71417 86.0277 1.55214 85.7281 3.04994 82.6659C3.94862 80.8353 9.50714 73.7789 14.4333 67.7544C15.7646 66.1235 17.9947 62.9282 20.3246 64.8254C22.588 66.656 19.8919 69.2855 18.4274 71.1162C12.8356 78.0394 6.04555 84.6297 6.04555 84.6297ZM50.8465 76.5748C50.6468 77.6732 50.1476 76.8078 50.0144 76.5083C48.7829 73.5792 46.4197 71.1162 43.2577 70.4172C37.3996 69.1857 32.7397 75.8093 28.8122 79.6703C23.3535 85.0957 17.1959 91.4198 16.1308 93.1173C14.3334 96.013 17.4289 96.6454 18.9267 95.3806C18.9267 95.3806 26.3824 89.5225 32.6066 83.2318C38.8308 76.941 43.2577 74.611 46.8857 81.7339C50.547 88.8568 54.7408 87.0928 56.0389 80.1696C62.6293 44.9545 29.6776 36.1673 14.2335 54.2409C10.0397 59.167 4.54774 66.7226 2.55067 69.4519C0.520316 72.148 2.78367 74.9106 5.31329 72.2478C7.84292 69.5851 9.74013 65.7573 16.863 59.2668C31.9409 45.5203 52.6106 56.9036 50.8465 76.5748ZM10.0397 93.1838C8.67503 94.5485 5.513 94.1491 7.07737 91.1535C9.00787 87.4256 18.3941 76.2087 22.7544 72.1147C26.7818 68.3203 29.3114 72.2146 26.7485 75.543C25.4504 77.2405 24.1191 78.3389 22.7211 80.0031C17.0294 86.7266 10.0397 93.1838 10.0397 93.1838Z" fill="#FF476E"/>
<path fill-rule="evenodd" clip-rule="evenodd" d="M19.9252 50.3465C18.8268 50.1468 19.6922 49.6475 19.9917 49.5144C21.2566 48.9818 22.4548 48.2163 23.4533 47.2843C20.0583 48.8154 16.8963 51.112 14.2335 54.2408C14.0671 54.4405 13.9007 54.6402 13.7343 54.8399C14.4998 55.1062 15.3319 55.3724 16.2972 55.5389C17.9281 55.8384 19.4925 56.0714 20.9903 56.2046C26.4157 52.976 32.2072 52.5433 37.2331 54.1742C40.6282 52.7763 43.4241 50.7792 45.5876 48.416C42.8582 46.7517 39.796 45.6866 36.634 45.2872C32.5067 48.882 26.7152 50.9456 19.9252 50.3465Z" fill="#941C61"/>
<path fill-rule="evenodd" clip-rule="evenodd" d="M85.1296 90.4544C86.5276 91.7858 86.228 94.9478 83.1659 93.45C81.3352 92.5513 74.2789 86.9928 68.2877 82.0667C66.6567 80.7354 63.4614 78.5053 65.3586 76.1754C67.1893 73.912 69.8188 76.6081 71.6494 78.0726C78.5393 83.6644 85.1296 90.4544 85.1296 90.4544ZM77.0748 45.6202C78.1732 45.8199 77.3078 46.3192 77.0082 46.4523C74.0792 47.6839 71.6161 50.047 70.9171 53.2091C69.6856 59.0671 76.3092 63.727 80.1702 67.6545C85.5956 73.1132 91.9197 79.2708 93.6172 80.3359C96.513 82.1333 97.1454 79.0378 95.8805 77.54C95.8805 77.54 90.0225 70.0843 83.7317 63.8601C77.4409 57.6359 75.111 53.2091 82.2339 49.5811C89.3568 45.9198 87.5927 41.7259 80.6695 40.4278C45.4545 33.8375 36.6674 66.7891 54.7409 82.2332C59.667 86.427 67.2226 91.9189 69.9519 93.916C72.6479 95.9464 75.4106 93.683 72.7478 91.1534C70.085 88.6238 66.2573 86.7266 59.7668 79.6037C46.0203 64.5258 57.4369 43.8894 77.0748 45.6202ZM93.6838 86.427C95.0484 87.7917 94.649 90.9537 91.6534 89.3893C87.9255 87.4588 76.7086 78.0726 72.6147 73.7123C68.8202 69.6849 72.7145 67.1553 76.043 69.7182C77.7405 71.0163 78.8389 72.3477 80.5031 73.7456C87.2266 79.4705 93.6838 86.427 93.6838 86.427Z" fill="#FACC00"/>
<path fill-rule="evenodd" clip-rule="evenodd" d="M50.8466 76.5748C50.6469 77.6732 50.1476 76.8078 50.0145 76.5082C49.4819 75.2434 48.7164 74.0452 47.7844 73.0466C49.3155 76.4417 51.6122 79.6037 54.7409 82.2665C54.9406 82.4329 55.1403 82.5993 55.34 82.7657C55.6063 82.0002 55.8726 81.1681 56.039 80.2028C56.3386 78.5719 56.5716 77.0075 56.7047 75.5097C53.4761 70.0843 53.0434 64.2928 54.6743 59.2668C53.2764 55.8718 51.2793 53.0759 48.9161 50.9124C47.2519 53.6417 46.1868 56.7039 45.7874 59.866C49.3821 63.96 51.4457 69.7848 50.8466 76.5748Z" fill="#F53814"/>
<path fill-rule="evenodd" clip-rule="evenodd" d="M90.9545 11.3371C92.2859 9.93913 95.4479 10.2387 93.9501 13.3009C93.0514 15.1315 87.4929 22.1878 82.5668 28.1791C81.2354 29.81 79.0054 33.0053 76.6754 31.1081C74.4121 29.2774 77.1081 26.648 78.5727 24.8173C84.1645 17.9607 90.9545 11.3371 90.9545 11.3371ZM46.1202 19.4252C46.3199 18.3268 46.8192 19.1922 46.9523 19.4918C48.1838 22.4208 50.547 24.8839 53.7091 25.5829C59.5672 26.8144 64.227 20.1908 68.1213 16.3298C73.58 10.9044 79.7376 4.58032 80.8027 2.88281C82.6001 -0.0129453 79.5046 -0.645351 78.0068 0.619461C78.0068 0.619461 70.5511 6.47754 64.3269 12.7683C58.1026 19.0591 53.6758 21.389 50.0478 14.2661C46.3865 7.14323 42.1926 8.90731 40.8945 15.8305C34.3042 51.0455 67.2559 59.8326 82.6999 41.7591C86.8938 36.833 92.3858 29.2774 94.3828 26.5481C96.4132 23.8521 94.1498 21.0894 91.6202 23.7522C89.0906 26.415 87.1934 30.2427 80.0705 36.7332C65.0258 50.4797 44.3894 39.0631 46.1202 19.4252ZM86.9271 2.81624C88.2917 1.45157 91.4538 1.85099 89.8894 4.8466C87.9589 8.57446 78.5727 19.7914 74.2124 23.8853C70.1849 27.6798 67.6553 23.7855 70.2182 20.457C71.5163 18.7595 72.8477 17.6611 74.2457 15.9969C79.9706 9.24015 86.9271 2.81624 86.9271 2.81624Z" fill="#0ACCAD"/>
<path fill-rule="evenodd" clip-rule="evenodd" d="M77.0748 45.6201C78.1732 45.8198 77.3078 46.3191 77.0082 46.4522C75.7434 46.9848 74.5452 47.7503 73.5466 48.6823C76.9417 47.1512 80.1037 44.8546 82.7664 41.7258C82.9329 41.5261 83.0993 41.3264 83.2657 41.1267C82.5002 40.8604 81.6681 40.5941 80.7028 40.4277C79.0719 40.1282 77.5075 39.8952 76.0097 39.762C70.5843 42.9906 64.7928 43.4233 59.7668 41.7924C56.3718 43.1903 53.5759 45.1874 51.4124 47.5506C54.1417 49.2148 57.2039 50.2799 60.366 50.6793C64.46 47.1179 70.2847 45.021 77.0748 45.6201Z" fill="#0D9E05"/>
<path fill-rule="evenodd" clip-rule="evenodd" d="M48.0839 45.1209C49.7482 42.3915 50.8133 39.3293 51.2127 36.1673C47.6179 32.04 45.5543 26.2485 46.1534 19.4584C46.3531 18.3601 46.8524 19.2255 46.9855 19.525C47.5181 20.7898 48.2836 21.9881 49.2156 22.9866C47.6845 19.5916 45.3879 16.4296 42.2591 13.7668C42.0594 13.6004 41.8597 13.4339 41.66 13.2675C41.3937 14.0331 41.1275 14.8652 40.961 15.8304C40.6615 17.4614 40.4285 19.0257 40.2953 20.5236C43.5239 25.9489 43.9566 31.7405 42.3257 36.7664C43.7237 40.1615 45.7207 42.9241 48.0839 45.1209Z" fill="#053B4F"/>
</svg>
