<svg width="38" height="38" viewBox="0 0 38 38" fill="none" xmlns="http://www.w3.org/2000/svg">
<rect width="38" height="38" rx="12" fill="#0ACCAD"/>
<path d="M22 17L28 11V17H22ZM16 21L10 27V21H16Z" fill="black"/>
<path d="M19 10C14.037 10 10 14.038 10 19H12C12 15.14 15.141 12 19 12C21.785 12 24.188 13.639 25.315 16H27.475C26.236 12.51 22.91 10 19 10ZM19 26C16.215 26 13.812 24.361 12.685 22H10.525C11.764 25.49 15.09 28 19 28C23.963 28 28 23.963 28 19H26C26 22.859 22.859 26 19 26Z" fill="black"/>
</svg>
