<svg width="32" height="32" viewBox="0 0 32 32" fill="none" xmlns="http://www.w3.org/2000/svg">
<path d="M19.9587 6.66667L11.9587 4L4.83867 6.848C4.332 7.05067 4 7.54 4 8.08533V26.752C4 27.6947 4.952 28.34 5.828 27.9893L12.0413 25.504L20.0413 28.1707L27.1613 25.3227C27.668 25.12 28 24.6307 28 24.0853V5.41867C28 4.476 27.048 3.83067 26.172 4.18133L19.9587 6.66667ZM25.3333 23.1827L19.9587 25.332L11.9587 22.6653L6.66667 24.7827V8.988L12.0413 6.83867L20.0413 9.50533L25.3333 7.388V23.1827Z" fill="#FF476E"/>
<path d="M14.6667 20H17.3333V22.6667H14.6667V20ZM16 12C17.3187 12 17.3333 13.32 17.3333 13.3333C17.3333 14.7387 14.6667 16 14.6667 18.6667H17.3333C17.3333 17.352 20 15.2293 20 13.3333C20 11.3667 18.504 9.33334 16 9.33334C13.272 9.33334 12 11.72 12 13.3333H14.6667C14.6667 13.1133 14.8987 12 16 12Z" fill="#FF476E"/>
<path opacity="0.3" d="M5.33331 8.00001L12 5.33334L20 8.00001L26.6666 5.33334V24L20 26.6667L12 24L5.33331 26.6667V8.00001Z" fill="#FF476E"/>
</svg>
