<svg width="32" height="32" viewBox="0 0 32 32" fill="none" xmlns="http://www.w3.org/2000/svg">
<path d="M21.3333 4C20.9797 4 20.6406 4.14048 20.3905 4.39052C20.1405 4.64057 20 4.97971 20 5.33333C20 5.68696 20.1405 6.02609 20.3905 6.27614C20.6406 6.52619 20.9797 6.66667 21.3333 6.66667C21.687 6.66667 22.0261 6.52619 22.2761 6.27614C22.5262 6.02609 22.6667 5.68696 22.6667 5.33333C22.6667 4.97971 22.5262 4.64057 22.2761 4.39052C22.0261 4.14048 21.687 4 21.3333 4ZM21.3333 25.3333C20.9797 25.3333 20.6406 25.4738 20.3905 25.7239C20.1405 25.9739 20 26.313 20 26.6667C20 27.0203 20.1405 27.3594 20.3905 27.6095C20.6406 27.8595 20.9797 28 21.3333 28C21.687 28 22.0261 27.8595 22.2761 27.6095C22.5262 27.3594 22.6667 27.0203 22.6667 26.6667C22.6667 26.313 22.5262 25.9739 22.2761 25.7239C22.0261 25.4738 21.687 25.3333 21.3333 25.3333ZM16 4C15.6464 4 15.3072 4.14048 15.0572 4.39052C14.8071 4.64057 14.6667 4.97971 14.6667 5.33333C14.6667 5.68696 14.8071 6.02609 15.0572 6.27614C15.3072 6.52619 15.6464 6.66667 16 6.66667C16.3536 6.66667 16.6928 6.52619 16.9428 6.27614C17.1929 6.02609 17.3333 5.68696 17.3333 5.33333C17.3333 4.97971 17.1929 4.64057 16.9428 4.39052C16.6928 4.14048 16.3536 4 16 4ZM26.6667 4C26.313 4 25.9739 4.14048 25.7239 4.39052C25.4738 4.64057 25.3333 4.97971 25.3333 5.33333C25.3333 5.68696 25.4738 6.02609 25.7239 6.27614C25.9739 6.52619 26.313 6.66667 26.6667 6.66667C27.0203 6.66667 27.3594 6.52619 27.6095 6.27614C27.8595 6.02609 28 5.68696 28 5.33333C28 4.97971 27.8595 4.64057 27.6095 4.39052C27.3594 4.14048 27.0203 4 26.6667 4ZM26.6667 25.3333C26.313 25.3333 25.9739 25.4738 25.7239 25.7239C25.4738 25.9739 25.3333 26.313 25.3333 26.6667C25.3333 27.0203 25.4738 27.3594 25.7239 27.6095C25.9739 27.8595 26.313 28 26.6667 28C27.0203 28 27.3594 27.8595 27.6095 27.6095C27.8595 27.3594 28 27.0203 28 26.6667C28 26.313 27.8595 25.9739 27.6095 25.7239C27.3594 25.4738 27.0203 25.3333 26.6667 25.3333ZM26.6667 20C26.313 20 25.9739 20.1405 25.7239 20.3905C25.4738 20.6406 25.3333 20.9797 25.3333 21.3333C25.3333 21.687 25.4738 22.0261 25.7239 22.2761C25.9739 22.5262 26.313 22.6667 26.6667 22.6667C27.0203 22.6667 27.3594 22.5262 27.6095 22.2761C27.8595 22.0261 28 21.687 28 21.3333C28 20.9797 27.8595 20.6406 27.6095 20.3905C27.3594 20.1405 27.0203 20 26.6667 20ZM26.6667 14.6667C26.313 14.6667 25.9739 14.8071 25.7239 15.0572C25.4738 15.3072 25.3333 15.6464 25.3333 16C25.3333 16.3536 25.4738 16.6928 25.7239 16.9428C25.9739 17.1929 26.313 17.3333 26.6667 17.3333C27.0203 17.3333 27.3594 17.1929 27.6095 16.9428C27.8595 16.6928 28 16.3536 28 16C28 15.6464 27.8595 15.3072 27.6095 15.0572C27.3594 14.8071 27.0203 14.6667 26.6667 14.6667ZM26.6667 9.33333C26.313 9.33333 25.9739 9.47381 25.7239 9.72386C25.4738 9.97391 25.3333 10.313 25.3333 10.6667C25.3333 11.0203 25.4738 11.3594 25.7239 11.6095C25.9739 11.8595 26.313 12 26.6667 12C27.0203 12 27.3594 11.8595 27.6095 11.6095C27.8595 11.3594 28 11.0203 28 10.6667C28 10.313 27.8595 9.97391 27.6095 9.72386C27.3594 9.47381 27.0203 9.33333 26.6667 9.33333ZM7.21867 26.6667L10.6667 30.1147L8.78133 32L5.33333 28.552L1.892 31.9933L0.00666667 30.108L3.448 26.6667L0 23.2187L1.88533 21.3333L5.33333 24.7813L8.788 21.3267L10.6733 23.212L7.21867 26.6667Z" fill="#FF476E"/>
<path d="M14.6667 9.33333H13.3333V6.66667C13.3333 5.196 12.1373 4 10.6667 4H6.66667C5.196 4 4 5.196 4 6.66667V19.6773L5.33333 21.0107L6.66667 19.6773V6.66667H10.6667V12H14.6667V25.3333H12.3227L10.9893 26.6667L12.3227 28H14.6667C16.1373 28 17.3333 26.804 17.3333 25.3333V12C17.3333 10.5293 16.1373 9.33333 14.6667 9.33333Z" fill="#FF476E"/>
<path opacity="0.3" d="M11.9999 10.6666V5.33331H5.33325V21.0106L6.90259 19.4413C7.42392 18.92 8.10525 18.66 8.78792 18.66C9.47059 18.66 10.1533 18.92 10.6733 19.4413L12.5586 21.3266C13.5999 22.368 13.5999 24.056 12.5586 25.0973L10.9893 26.6666H15.9999V10.6666H11.9999Z" fill="#FF476E"/>
</svg>
