<svg width="211" height="175" viewBox="0 0 211 175" fill="none" xmlns="http://www.w3.org/2000/svg">
<g clip-path="url(#clip0)">
<path d="M174.2 32.3808C172.623 26.737 174.421 20.9987 178.488 19.17C183.69 16.8368 191.856 24.9083 193.149 36.385C193.969 43.6683 200.937 54.7982 195.482 56.9737C190.564 58.9285 178.046 46.1591 174.2 32.3808Z" fill="url(#paint0_linear)"/>
<path d="M111.74 160.705C130.437 162.975 136.144 173.727 159.854 170.07C182.997 166.475 199.266 136.333 203.459 118.235C204.815 112.308 208.567 96.1647 201.441 80.1478C196.68 69.4593 188.262 64.0047 177.983 50.6363C165.119 33.9257 171.394 30.2998 162.975 19.3591C153.737 7.31491 145.855 5.4862 140.936 3.59444C108.146 -8.92272 62.5858 12.738 38.3397 44.7088C21.8183 66.4956 6.21127 106.853 23.8362 134.063C33.5472 149.071 48.5552 156.922 54.1359 158.624C78.855 166.318 86.9895 157.71 111.74 160.705Z" fill="url(#paint1_linear)"/>
<path d="M130.09 85.2876C133.905 80.6213 171.583 95.85 170.889 113.317C170.605 119.97 164.772 127.033 159.097 127.442C151.341 127.978 144.909 115.903 133.464 94.3366C129.649 87.1163 129.523 85.9497 130.09 85.2876Z" fill="url(#paint2_radial)"/>
<path opacity="0.7" d="M161.557 113.727C161.557 113.727 157.237 101.588 141.567 93.3586" stroke="white" stroke-width="0.343355" stroke-miterlimit="10"/>
<path d="M130.09 85.2871C129.523 85.9808 129.649 87.1158 133.464 94.3045C135.86 98.8132 138.036 102.881 140.022 106.538C147.652 120.379 152.949 127.852 159.097 127.442C164.773 127.064 170.605 119.969 170.889 113.317C171.11 107.673 167.326 102.25 161.966 97.6782C150.773 88.0617 132.676 82.1027 130.09 85.2871Z" fill="url(#paint3_linear)"/>
<path d="M80.463 129.901C76.2695 134.978 22.039 108.493 16.3953 76.7113C15.6385 72.4863 13.9675 62.996 19.8004 56.5009C22.8588 53.0958 28.4395 49.9744 34.3355 50.7626C36.0065 50.9833 39.0964 51.74 42.5646 54.7668C52.4649 63.4374 52.3387 79.2967 55.9646 92.4129C63.1218 117.92 82.9853 126.875 80.463 129.901Z" fill="url(#paint4_radial)"/>
<path opacity="0.7" d="M64.8559 117.92C57.7618 112.434 47.8616 103.353 39.727 89.6381C35.3444 82.2287 32.4753 75.1976 30.5835 69.3016" stroke="white" stroke-width="0.348337" stroke-miterlimit="10"/>
<path d="M16.3959 76.7111C22.0397 108.493 76.2702 134.977 80.4951 129.901C82.5761 127.379 69.2707 120.789 60.6001 104.079C58.8029 100.642 57.2264 96.7638 56.0283 92.4127C52.5601 80.0217 52.5286 65.1713 44.1417 56.2485C43.6688 55.744 43.1643 55.2396 42.5968 54.7666C39.1286 51.7398 36.0702 51.0146 34.3676 50.7624C28.4716 49.9426 22.8594 53.0956 19.8326 56.5007C13.9681 63.0273 15.6707 72.4861 16.3959 76.7111Z" fill="url(#paint5_linear)"/>
<path d="M132.077 70.7205C135.86 74.3779 176.47 48.5869 178.11 22.922C178.33 19.5168 178.803 11.8552 173.632 7.22034C170.889 4.82411 166.16 2.83776 161.588 3.97282C160.295 4.28811 157.899 5.17093 155.44 7.85093C148.377 15.5756 149.891 28.1559 148.157 38.8443C144.751 59.7168 129.806 68.545 132.077 70.7205Z" fill="url(#paint6_radial)"/>
<path opacity="0.7" d="M143.364 59.8428C148.503 54.8927 155.534 46.8212 160.737 35.2184C163.543 28.9756 165.182 23.1426 166.16 18.2871" stroke="white" stroke-width="0.277585" stroke-miterlimit="10"/>
<path d="M178.078 22.9219C176.438 48.5869 135.829 74.3464 132.045 70.7205C130.153 68.9233 140.148 62.5229 145.508 48.4923C146.612 45.6231 147.526 42.4071 148.093 38.8443C149.733 28.7234 148.472 16.9629 154.305 9.14361C154.652 8.7022 154.998 8.26079 155.377 7.81938C157.836 5.10785 160.232 4.25656 161.525 3.94126C166.16 2.83774 170.889 4.82409 173.601 7.25185C178.803 11.8551 178.299 19.5168 178.078 22.9219Z" fill="url(#paint7_linear)"/>
<path d="M67.2836 144.373C69.8691 143.017 66.2117 120.096 50.8884 111.614C48.7759 110.448 37.9298 105.813 30.3312 110.353C25.9486 113.001 22.9218 118.992 24.5929 123.375C27.4936 130.942 46.222 125.519 61.5138 137.847C66.2432 141.662 66.2432 144.941 67.2836 144.373Z" fill="url(#paint8_radial)"/>
<path opacity="0.7" d="M66.3063 136.901C66.3063 136.901 56.7844 117.384 37.047 117.92" stroke="white" stroke-width="0.321442" stroke-miterlimit="10"/>
<path d="M67.2836 144.373C69.8691 143.017 66.2117 120.096 50.8884 111.614C48.7759 110.448 37.9298 105.813 30.3312 110.353C25.9486 113.001 22.9218 118.992 24.5929 123.375C27.4936 130.942 46.222 125.519 61.5138 137.847C66.2432 141.662 66.2432 144.941 67.2836 144.373Z" fill="url(#paint9_linear)"/>
<path d="M136.396 57.7619C141.63 51.456 151.688 44.8979 150.458 31.4664C150.332 30.0791 149.039 17.8141 140.4 13.3054C139.454 12.801 135.198 10.72 130.942 12.1704C127.316 13.4 124.257 17.0574 124.1 21.1563C123.816 29.1647 134.788 32.9798 138.319 45.5285C139.391 49.2805 137.374 55.3341 136.396 57.7619Z" fill="url(#paint10_linear)"/>
<path opacity="0.7" d="M136.396 57.7619C136.396 57.7619 145.666 47.9247 145.035 37.3939C144.436 27.1153 136.964 21.1562 136.964 21.1562" stroke="white" stroke-width="0.290323" stroke-miterlimit="10"/>
<path d="M136.396 57.7619C141.63 51.456 151.688 44.8979 150.458 31.4664C150.332 30.0791 149.039 17.8141 140.4 13.3054C139.454 12.801 135.198 10.72 130.942 12.1704C127.316 13.4 124.257 17.0574 124.1 21.1563C123.816 29.1647 134.788 32.9798 138.319 45.5285C139.391 49.2805 137.374 55.3341 136.396 57.7619Z" fill="url(#paint11_linear)"/>
<path d="M37.8352 37.8669V44.8034H56.7528V37.8669C56.7528 32.633 52.5279 28.4081 47.294 28.4081C44.6771 28.4081 42.3124 29.4801 40.6098 31.1827C38.8757 32.8853 37.8352 35.25 37.8352 37.8669Z" fill="url(#paint12_linear)"/>
<path d="M56.7529 28.4081H134.126H135.576C140.81 28.4081 145.035 32.633 145.035 37.8669V38.8443C145.035 39.002 145.035 39.1911 145.035 39.3488V138.761C145.035 143.995 149.26 148.22 154.494 148.22H145.035H67.6936H66.2117C60.9778 148.22 56.7529 143.995 56.7529 138.761V137.783C56.7529 137.626 56.7529 137.437 56.7529 137.279V37.8669C56.7529 32.633 52.5279 28.4081 47.2941 28.4081H56.7529Z" fill="url(#paint13_linear)"/>
<path d="M64.3199 147.999C64.9821 148.157 65.6442 148.22 66.3378 148.22C67.0315 148.22 67.6936 148.157 68.3557 147.999H64.3199Z" fill="#DFD4C1"/>
<path d="M68.3241 147.999C70.1213 147.621 71.7293 146.706 72.9904 145.445C74.693 143.743 75.765 141.378 75.765 138.761V131.824H163.732V138.761C163.732 141.378 162.66 143.743 160.957 145.445C159.255 147.148 156.89 148.22 154.273 148.22C153.58 148.22 152.917 148.157 152.255 147.999H68.3241Z" fill="url(#paint14_linear)"/>
<path opacity="0.8" d="M71.1618 46.6635H132.928C133.748 46.6635 134.441 45.9699 134.441 45.1501C134.441 44.3304 133.748 43.6367 132.928 43.6367H71.1618C70.3421 43.6367 69.6484 44.3304 69.6484 45.1501C69.6484 46.0014 70.3421 46.6635 71.1618 46.6635Z" fill="url(#paint15_linear)"/>
<path opacity="0.8" d="M84.5303 53.5684H133.18C133.874 53.5684 134.41 53.0009 134.41 52.3388V51.7713C134.41 51.0776 133.842 50.5416 133.18 50.5416H84.5303C83.8367 50.5416 83.3007 51.1092 83.3007 51.7713V52.3388C83.3007 53.0324 83.8682 53.5684 84.5303 53.5684Z" fill="url(#paint16_linear)"/>
<path opacity="0.8" d="M71.1618 97.3313H132.928C133.748 97.3313 134.441 96.6376 134.441 95.8178C134.441 94.9981 133.748 94.3044 132.928 94.3044H71.1618C70.3421 94.3044 69.6484 94.9981 69.6484 95.8178C69.6484 96.6691 70.3421 97.3313 71.1618 97.3313Z" fill="url(#paint17_linear)"/>
<path opacity="0.8" d="M84.5303 104.236H133.18C133.874 104.236 134.41 103.669 134.41 103.007V102.471C134.41 101.777 133.842 101.241 133.18 101.241H84.5303C83.8367 101.241 83.3007 101.808 83.3007 102.471V103.038C83.3007 103.7 83.8682 104.236 84.5303 104.236Z" fill="url(#paint18_linear)"/>
<path d="M64.9506 61.9553V92.8541C64.9506 95.6287 67.1261 97.8988 69.8376 97.8988H145.067V56.9106H69.8061C67.1261 56.9106 64.9506 59.1492 64.9506 61.9553Z" fill="url(#paint19_radial)"/>
<path d="M78.6342 86.1068H154.998C156.859 86.1068 158.341 84.5934 158.341 82.7647V65.7388C158.341 63.8786 156.827 62.3967 154.998 62.3967H78.6342C76.774 62.3967 75.2921 63.9101 75.2921 65.7388V82.7647C75.2921 84.6249 76.774 86.1068 78.6342 86.1068Z" fill="white"/>
<path opacity="0.8" d="M87.3363 72.297H125.077C125.897 72.297 126.59 71.6033 126.59 70.7836C126.59 69.9638 125.897 69.2701 125.077 69.2701H87.3363C86.5166 69.2701 85.8229 69.9638 85.8229 70.7836C85.8229 71.6348 86.5166 72.297 87.3363 72.297Z" fill="url(#paint20_linear)"/>
<path opacity="0.8" d="M100.736 79.2019H125.361C126.054 79.2019 126.59 78.6343 126.59 77.9722V77.4047C126.59 76.711 126.023 76.175 125.361 76.175H100.736C100.043 76.175 99.5066 76.7426 99.5066 77.4047V77.9722C99.4751 78.6659 100.043 79.2019 100.736 79.2019Z" fill="url(#paint21_linear)"/>
<path d="M146.076 70.7205C146.076 69.3962 145.256 68.7341 144.468 68.7341C142.513 68.7341 143.017 72.0447 141.189 72.0447C140.432 72.0447 139.833 71.5718 139.833 70.7835C139.833 69.3016 141.819 67.6621 144.341 67.6621C146.801 67.6621 148.819 68.671 148.819 71.0358C148.819 74.0941 144.877 74.4094 144.877 76.6165C144.877 77.2155 143.175 77.2786 142.986 76.6165C142.45 73.968 146.076 73.4005 146.076 70.7205ZM142.387 79.4226C142.387 78.4452 143.112 77.9722 143.995 77.9722C144.846 77.9722 145.571 78.4452 145.571 79.4226C145.571 80.3684 144.846 80.8414 143.995 80.8414C143.112 80.8414 142.387 80.3684 142.387 79.4226Z" fill="url(#paint22_linear)"/>
<path d="M0 24.9714V34.3671H25.6649V24.9714C25.6649 17.8773 19.9266 12.1389 12.8325 12.1389C9.30117 12.1389 6.08517 13.5893 3.752 15.8909C1.45035 18.2241 0 21.4086 0 24.9714Z" fill="url(#paint23_linear)"/>
<path d="M25.6649 12.1389H130.563H132.549C139.644 12.1389 145.382 17.8773 145.382 24.9714V26.2641C145.382 26.4848 145.413 26.737 145.413 26.9577V161.746C145.413 168.84 151.152 174.578 158.246 174.578H145.413H40.4837H38.4973C31.4032 174.578 25.6649 168.84 25.6649 161.746V160.453C25.6649 160.232 25.6334 159.98 25.6334 159.759V24.9714C25.6334 17.8773 19.895 12.1389 12.8009 12.1389H25.6649Z" fill="url(#paint24_linear)"/>
<path d="M35.912 174.294C36.7948 174.484 37.7092 174.578 38.655 174.578C39.6009 174.578 40.5153 174.484 41.3981 174.294H35.912Z" fill="#DFD4C1"/>
<path d="M41.3666 174.295C43.8259 173.759 46.0014 172.529 47.704 170.826C50.0372 168.493 51.456 165.309 51.456 161.746V152.319H170.732V161.746C170.732 165.277 169.281 168.493 166.98 170.826C164.646 173.16 161.462 174.578 157.899 174.578C156.953 174.578 156.039 174.484 155.156 174.295H41.3666Z" fill="url(#paint25_linear)"/>
<path opacity="0.8" d="M45.2131 36.8895H128.955C130.09 36.8895 131.005 35.9751 131.005 34.8401C131.005 33.705 130.09 32.7906 128.955 32.7906H45.2131C44.078 32.7906 43.1637 33.705 43.1637 34.8401C43.1637 35.9751 44.078 36.8895 45.2131 36.8895Z" fill="url(#paint26_linear)"/>
<path opacity="0.8" d="M63.3426 46.2853H129.302C130.216 46.2853 130.973 45.5286 130.973 44.6142V43.826C130.973 42.9116 130.216 42.1549 129.302 42.1549H63.3426C62.4282 42.1549 61.6715 42.9116 61.6715 43.826V44.5827C61.6715 45.5285 62.4282 46.2853 63.3426 46.2853Z" fill="url(#paint27_linear)"/>
<path opacity="0.8" d="M45.2131 105.592H128.955C130.09 105.592 131.005 104.678 131.005 103.543C131.005 102.408 130.09 101.493 128.955 101.493H45.2131C44.078 101.493 43.1637 102.408 43.1637 103.543C43.1637 104.678 44.078 105.592 45.2131 105.592Z" fill="url(#paint28_linear)"/>
<path opacity="0.8" d="M63.3426 114.956H129.302C130.216 114.956 130.973 114.2 130.973 113.285V112.528C130.973 111.614 130.216 110.857 129.302 110.857H63.3426C62.4282 110.857 61.6715 111.614 61.6715 112.528V113.285C61.6715 114.2 62.4282 114.956 63.3426 114.956Z" fill="url(#paint29_linear)"/>
<path d="M36.7633 57.6043V99.5069C36.7633 103.29 39.7271 106.349 43.3845 106.349H145.382V50.7625H43.3845C39.7271 50.7625 36.7633 53.8208 36.7633 57.6043Z" fill="url(#paint30_radial)"/>
<path d="M55.3341 90.3633H158.877C161.367 90.3633 163.417 88.3455 163.417 85.8231V62.7436C163.417 60.2528 161.399 58.2034 158.877 58.2034H55.3341C52.8432 58.2034 50.7938 60.2212 50.7938 62.7436V85.8546C50.7938 88.3454 52.8117 90.3633 55.3341 90.3633Z" fill="white"/>
<path opacity="0.8" d="M67.1261 71.6348H118.267C119.402 71.6348 120.316 70.7205 120.316 69.5854C120.316 68.4504 119.402 67.536 118.267 67.536H67.1261C65.991 67.536 65.0767 68.4504 65.0767 69.5854C65.0767 70.7205 66.0225 71.6348 67.1261 71.6348Z" fill="url(#paint31_linear)"/>
<path opacity="0.8" d="M85.287 81.0305H118.677C119.591 81.0305 120.348 80.2738 120.348 79.3594V78.6027C120.348 77.6883 119.591 76.9316 118.677 76.9316H85.287C84.3727 76.9316 83.616 77.6883 83.616 78.6027V79.3594C83.616 80.2738 84.3727 81.0305 85.287 81.0305Z" fill="url(#paint32_linear)"/>
<path d="M146.769 69.5224C146.769 67.7252 145.634 66.8109 144.562 66.8109C141.914 66.8109 142.607 71.288 140.117 71.288C139.108 71.288 138.288 70.6574 138.288 69.5539C138.288 67.536 140.999 65.329 144.405 65.329C147.747 65.329 150.458 66.7163 150.458 69.9007C150.458 74.0626 145.13 74.441 145.13 77.4363C145.13 78.2245 142.828 78.3191 142.576 77.4363C141.819 73.905 146.769 73.1167 146.769 69.5224ZM141.756 81.2828C141.756 79.9586 142.765 79.2965 143.932 79.2965C145.067 79.2965 146.076 79.9271 146.076 81.2828C146.076 82.5755 145.067 83.2061 143.932 83.2061C142.765 83.2061 141.756 82.5755 141.756 81.2828Z" fill="url(#paint33_linear)"/>
<path d="M194 114.357L187.411 120.947L170.448 103.984C169.534 103.07 169.534 101.588 170.448 100.673L173.727 97.3943C174.641 96.4799 176.123 96.4799 177.038 97.3943L186.15 106.506L194 114.357Z" fill="url(#paint34_linear)"/>
<path d="M194.473 114.83L187.884 121.42L180.033 113.537L186.622 106.948L194.473 114.83Z" fill="url(#paint35_linear)"/>
<path d="M210.175 130.342L203.428 137.09C202.45 138.067 200.811 138.067 199.833 137.09L180.947 118.235C179.97 117.258 179.97 115.618 180.947 114.641L187.694 107.893C188.672 106.916 190.311 106.916 191.289 107.893L210.175 126.78C211.152 127.725 211.152 129.365 210.175 130.342Z" fill="url(#paint36_linear)"/>
<path d="M148.976 38.5289H144.72V38.7812C127 40.8936 113.254 55.9647 113.254 74.2517C113.254 92.5388 127 107.641 144.72 109.722V109.975H148.976C168.714 109.975 184.699 93.9891 184.699 74.2517C184.699 54.5143 168.714 38.5289 148.976 38.5289ZM148.976 101.651C133.842 101.651 121.577 89.3858 121.577 74.2517C121.577 59.1176 133.842 46.8527 148.976 46.8527C164.11 46.8527 176.375 59.1176 176.375 74.2517C176.375 89.3858 164.11 101.651 148.976 101.651Z" fill="url(#paint37_linear)"/>
<path d="M121.577 74.2833C121.577 60.1581 132.266 48.5553 145.95 47.0734C144.972 46.9473 143.963 46.9158 142.954 46.9158C127.82 46.9158 115.555 59.1807 115.555 74.3148C115.555 89.4489 127.82 101.714 142.954 101.714C143.963 101.714 144.972 101.651 145.95 101.556C132.266 100.011 121.577 88.3769 121.577 74.2833Z" fill="url(#paint38_linear)"/>
<path d="M144.751 38.5289C125.014 38.5289 109.029 54.5143 109.029 74.2517C109.029 93.9891 125.014 109.975 144.751 109.975C164.489 109.975 180.474 93.9891 180.474 74.2517C180.474 54.5143 164.457 38.5289 144.751 38.5289ZM144.751 101.651C129.617 101.651 117.352 89.3858 117.352 74.2517C117.352 59.1176 129.617 46.8527 144.751 46.8527C159.886 46.8527 172.15 59.1176 172.15 74.2517C172.15 89.3858 159.854 101.651 144.751 101.651Z" fill="url(#paint39_linear)"/>
<path d="M144.751 40.7675C126.244 40.7675 111.267 55.7754 111.267 74.2517C111.267 92.7279 126.275 107.736 144.751 107.736C163.259 107.736 178.236 92.7279 178.236 74.2517C178.236 55.7754 163.228 40.7675 144.751 40.7675ZM144.751 101.651C129.617 101.651 117.352 89.3858 117.352 74.2517C117.352 59.1176 129.617 46.8526 144.751 46.8526C159.886 46.8526 172.151 59.1176 172.151 74.2517C172.151 89.3858 159.854 101.651 144.751 101.651Z" fill="url(#paint40_linear)"/>
<path opacity="0.6" d="M168.02 50.1948C173.916 56.2485 177.574 64.5092 177.574 73.6212C177.574 92.1289 162.566 107.105 144.089 107.105C134.977 107.105 126.717 103.479 120.663 97.5519C126.748 103.858 135.293 107.767 144.751 107.767C163.259 107.767 178.236 92.7595 178.236 74.2833C178.236 64.8245 174.326 56.28 168.02 50.1948Z" fill="white"/>
<path d="M144.089 40.1053C125.582 40.1053 110.605 55.1133 110.605 73.5895C110.605 82.9538 114.452 91.4352 120.695 97.5203C114.862 91.4982 111.267 83.3006 111.267 74.2517C111.267 55.7439 126.275 40.7675 144.751 40.7675C153.8 40.7675 161.998 44.3618 168.02 50.1632C161.935 43.9835 153.454 40.1053 144.089 40.1053Z" fill="url(#paint41_linear)"/>
<path d="M144.751 44.7717C128.482 44.7717 115.271 57.9825 115.271 74.2517C115.271 90.5209 128.482 103.732 144.751 103.732C161.052 103.732 174.231 90.5209 174.231 74.2517C174.231 57.9825 161.021 44.7717 144.751 44.7717ZM144.751 101.651C129.617 101.651 117.352 89.3858 117.352 74.2517C117.352 59.1176 129.617 46.8527 144.751 46.8527C159.886 46.8527 172.15 59.1176 172.15 74.2517C172.15 89.3858 159.854 101.651 144.751 101.651Z" fill="url(#paint42_linear)"/>
<path opacity="0.1" d="M144.751 101.651C129.617 101.651 117.352 89.3858 117.352 74.2517C117.352 59.1176 129.617 46.8527 144.751 46.8527C159.886 46.8527 172.15 59.1176 172.15 74.2517C172.15 89.3858 159.854 101.651 144.751 101.651Z" fill="url(#paint43_radial)"/>
</g>
<defs>
<linearGradient id="paint0_linear" x1="159.989" y1="189.196" x2="206.751" y2="-82.4713" gradientUnits="userSpaceOnUse">
<stop stop-color="#99C4DE"/>
<stop offset="0.6519" stop-color="#D4E6F0"/>
<stop offset="1" stop-color="#EEF5F8"/>
</linearGradient>
<linearGradient id="paint1_linear" x1="10.9999" y1="-5.13708" x2="205.925" y2="189.788" gradientUnits="userSpaceOnUse">
<stop stop-color="#99C4DE"/>
<stop offset="0.6519" stop-color="#D4E6F0"/>
<stop offset="1" stop-color="#EEF5F8"/>
</linearGradient>
<radialGradient id="paint2_radial" cx="0" cy="0" r="1" gradientUnits="userSpaceOnUse" gradientTransform="translate(148.591 107.409) rotate(-66.7217) scale(26.2912)">
<stop stop-color="#9BC091"/>
<stop offset="0.273" stop-color="#A7C999"/>
<stop offset="0.7694" stop-color="#C8E2AE"/>
<stop offset="0.9301" stop-color="#D4EBB6"/>
</radialGradient>
<linearGradient id="paint3_linear" x1="138.539" y1="98.2948" x2="161.357" y2="113.92" gradientUnits="userSpaceOnUse">
<stop stop-color="#9BC091"/>
<stop offset="0.2729" stop-color="#A7C999" stop-opacity="0.7065"/>
<stop offset="0.7691" stop-color="#C8E2AE" stop-opacity="0.1728"/>
<stop offset="0.9298" stop-color="#D4EBB6" stop-opacity="0"/>
</linearGradient>
<radialGradient id="paint4_radial" cx="0" cy="0" r="1" gradientUnits="userSpaceOnUse" gradientTransform="translate(48.4463 85.6878) rotate(119.12) scale(42.0428 42.6106)">
<stop stop-color="#9BC091"/>
<stop offset="0.273" stop-color="#A7C999"/>
<stop offset="0.7694" stop-color="#C8E2AE"/>
<stop offset="0.9301" stop-color="#D4EBB6"/>
</radialGradient>
<linearGradient id="paint5_linear" x1="54.4573" y1="118.802" x2="41.148" y2="85.4443" gradientUnits="userSpaceOnUse">
<stop stop-color="#9BC091"/>
<stop offset="0.2729" stop-color="#A7C999" stop-opacity="0.7065"/>
<stop offset="0.7691" stop-color="#C8E2AE" stop-opacity="0.1728"/>
<stop offset="0.9298" stop-color="#D4EBB6" stop-opacity="0"/>
</linearGradient>
<radialGradient id="paint6_radial" cx="0" cy="0" r="1" gradientUnits="userSpaceOnUse" gradientTransform="translate(153.535 32.9563) rotate(54.498) scale(33.5059 33.9551)">
<stop stop-color="#9BC091"/>
<stop offset="0.273" stop-color="#A7C999"/>
<stop offset="0.7694" stop-color="#C8E2AE"/>
<stop offset="0.9301" stop-color="#D4EBB6"/>
</radialGradient>
<linearGradient id="paint7_linear" x1="151.63" y1="59.6312" x2="159.215" y2="32.0342" gradientUnits="userSpaceOnUse">
<stop stop-color="#9BC091"/>
<stop offset="0.2729" stop-color="#A7C999" stop-opacity="0.7065"/>
<stop offset="0.7691" stop-color="#C8E2AE" stop-opacity="0.1728"/>
<stop offset="0.9298" stop-color="#D4EBB6" stop-opacity="0"/>
</linearGradient>
<radialGradient id="paint8_radial" cx="0" cy="0" r="1" gradientUnits="userSpaceOnUse" gradientTransform="translate(53.4013 131.728) rotate(175.019) scale(26.2269 25.3213)">
<stop stop-color="#9BC091"/>
<stop offset="0.273" stop-color="#A7C999"/>
<stop offset="0.7694" stop-color="#C8E2AE"/>
<stop offset="0.9301" stop-color="#D4EBB6"/>
</radialGradient>
<linearGradient id="paint9_linear" x1="64.3217" y1="131.701" x2="38.7751" y2="118.707" gradientUnits="userSpaceOnUse">
<stop stop-color="#9BC091"/>
<stop offset="0.2729" stop-color="#A7C999" stop-opacity="0.7065"/>
<stop offset="0.7691" stop-color="#C8E2AE" stop-opacity="0.1728"/>
<stop offset="0.9298" stop-color="#D4EBB6" stop-opacity="0"/>
</linearGradient>
<linearGradient id="paint10_linear" x1="145.298" y1="59.7746" x2="140.033" y2="19.9432" gradientUnits="userSpaceOnUse">
<stop stop-color="#9BC091"/>
<stop offset="0.3313" stop-color="#A7C999"/>
<stop offset="0.9339" stop-color="#C8E2AE"/>
<stop offset="1" stop-color="#CCE5B1"/>
</linearGradient>
<linearGradient id="paint11_linear" x1="171.917" y1="67.4824" x2="117.118" y2="14.7669" gradientUnits="userSpaceOnUse">
<stop stop-color="#9BC091"/>
<stop offset="0.2729" stop-color="#A7C999" stop-opacity="0.7065"/>
<stop offset="0.7691" stop-color="#C8E2AE" stop-opacity="0.1728"/>
<stop offset="0.9298" stop-color="#D4EBB6" stop-opacity="0"/>
</linearGradient>
<linearGradient id="paint12_linear" x1="52.4063" y1="30.301" x2="45.0463" y2="44.5075" gradientUnits="userSpaceOnUse">
<stop offset="0.1151" stop-color="#D3CDC6"/>
<stop offset="0.2777" stop-color="#D8D1CD"/>
<stop offset="1" stop-color="#F0F0EA"/>
</linearGradient>
<linearGradient id="paint13_linear" x1="64.9901" y1="151.024" x2="115.915" y2="62.103" gradientUnits="userSpaceOnUse">
<stop offset="0.0088347" stop-color="#DED6CB"/>
<stop offset="0.8282" stop-color="#FAF7F6"/>
<stop offset="1" stop-color="white"/>
</linearGradient>
<linearGradient id="paint14_linear" x1="116.048" y1="153.256" x2="116.048" y2="135.357" gradientUnits="userSpaceOnUse">
<stop stop-color="#E8E1DB"/>
<stop offset="1" stop-color="white"/>
</linearGradient>
<linearGradient id="paint15_linear" x1="114.716" y1="23.1156" x2="51.4752" y2="133.144" gradientUnits="userSpaceOnUse">
<stop offset="0.00713712" stop-color="#E4E4E4"/>
<stop offset="0.999" stop-color="#D3D7D0"/>
</linearGradient>
<linearGradient id="paint16_linear" x1="125.795" y1="22.6312" x2="52.8375" y2="149.565" gradientUnits="userSpaceOnUse">
<stop offset="0.00713712" stop-color="#E4E4E4"/>
<stop offset="0.999" stop-color="#D3D7D0"/>
</linearGradient>
<linearGradient id="paint17_linear" x1="148.614" y1="14.8033" x2="85.3732" y2="124.831" gradientUnits="userSpaceOnUse">
<stop offset="0.00713712" stop-color="#E4E4E4"/>
<stop offset="0.999" stop-color="#D3D7D0"/>
</linearGradient>
<linearGradient id="paint18_linear" x1="164.901" y1="5.25703" x2="91.9439" y2="132.191" gradientUnits="userSpaceOnUse">
<stop offset="0.00713712" stop-color="#E4E4E4"/>
<stop offset="0.999" stop-color="#D3D7D0"/>
</linearGradient>
<radialGradient id="paint19_radial" cx="0" cy="0" r="1" gradientUnits="userSpaceOnUse" gradientTransform="translate(121.509 77.3014) rotate(180) scale(55.941 20.0544)">
<stop offset="0.00850613" stop-color="#CBC7C3"/>
<stop offset="0.4076" stop-color="#DED6CB"/>
<stop offset="1" stop-color="#E8E1DB" stop-opacity="0"/>
</radialGradient>
<linearGradient id="paint20_linear" x1="125.336" y1="37.5122" x2="84.4993" y2="108.561" gradientUnits="userSpaceOnUse">
<stop offset="0.00713712" stop-color="#E4E4E4"/>
<stop offset="0.999" stop-color="#D3D7D0"/>
</linearGradient>
<linearGradient id="paint21_linear" x1="133.454" y1="42.1785" x2="92.6179" y2="113.227" gradientUnits="userSpaceOnUse">
<stop offset="0.00713712" stop-color="#E4E4E4"/>
<stop offset="0.999" stop-color="#D3D7D0"/>
</linearGradient>
<linearGradient id="paint22_linear" x1="137.343" y1="80.411" x2="151.586" y2="65.9225" gradientUnits="userSpaceOnUse">
<stop offset="0.00976562" stop-color="#CC1E13"/>
<stop offset="0.1505" stop-color="#D02519"/>
<stop offset="0.36" stop-color="#DC3A28"/>
<stop offset="0.6115" stop-color="#EF5B42"/>
<stop offset="0.6418" stop-color="#F25F45"/>
<stop offset="1" stop-color="#F89574"/>
</linearGradient>
<linearGradient id="paint23_linear" x1="19.7699" y1="14.7032" x2="9.7912" y2="33.9644" gradientUnits="userSpaceOnUse">
<stop offset="0.1151" stop-color="#D3CDC6"/>
<stop offset="0.2777" stop-color="#D8D1CD"/>
<stop offset="1" stop-color="#F0F0EA"/>
</linearGradient>
<linearGradient id="paint24_linear" x1="36.831" y1="178.381" x2="105.876" y2="57.8206" gradientUnits="userSpaceOnUse">
<stop offset="0.0088347" stop-color="#DED6CB"/>
<stop offset="0.8282" stop-color="#FAF7F6"/>
<stop offset="1" stop-color="white"/>
</linearGradient>
<linearGradient id="paint25_linear" x1="106.056" y1="181.406" x2="106.056" y2="157.139" gradientUnits="userSpaceOnUse">
<stop stop-color="#E8E1DB"/>
<stop offset="1" stop-color="white"/>
</linearGradient>
<linearGradient id="paint26_linear" x1="104.249" y1="4.96121" x2="18.5075" y2="154.138" gradientUnits="userSpaceOnUse">
<stop offset="0.00713712" stop-color="#E4E4E4"/>
<stop offset="0.999" stop-color="#D3D7D0"/>
</linearGradient>
<linearGradient id="paint27_linear" x1="119.271" y1="4.30437" x2="20.3543" y2="176.402" gradientUnits="userSpaceOnUse">
<stop offset="0.00713712" stop-color="#E4E4E4"/>
<stop offset="0.999" stop-color="#D3D7D0"/>
</linearGradient>
<linearGradient id="paint28_linear" x1="150.208" y1="-6.30865" x2="64.4666" y2="142.868" gradientUnits="userSpaceOnUse">
<stop offset="0.00713712" stop-color="#E4E4E4"/>
<stop offset="0.999" stop-color="#D3D7D0"/>
</linearGradient>
<linearGradient id="paint29_linear" x1="172.291" y1="-19.2517" x2="73.3753" y2="152.846" gradientUnits="userSpaceOnUse">
<stop offset="0.00713712" stop-color="#E4E4E4"/>
<stop offset="0.999" stop-color="#D3D7D0"/>
</linearGradient>
<radialGradient id="paint30_radial" cx="0" cy="0" r="1" gradientUnits="userSpaceOnUse" gradientTransform="translate(113.428 78.4255) rotate(180) scale(75.8453 27.19)">
<stop offset="0.00850613" stop-color="#CBC7C3"/>
<stop offset="0.4076" stop-color="#DED6CB"/>
<stop offset="1" stop-color="#E8E1DB" stop-opacity="0"/>
</radialGradient>
<linearGradient id="paint31_linear" x1="118.648" y1="24.4801" x2="63.2819" y2="120.809" gradientUnits="userSpaceOnUse">
<stop offset="0.00713712" stop-color="#E4E4E4"/>
<stop offset="0.999" stop-color="#D3D7D0"/>
</linearGradient>
<linearGradient id="paint32_linear" x1="129.656" y1="30.8067" x2="74.2891" y2="127.135" gradientUnits="userSpaceOnUse">
<stop offset="0.00713712" stop-color="#E4E4E4"/>
<stop offset="0.999" stop-color="#D3D7D0"/>
</linearGradient>
<linearGradient id="paint33_linear" x1="134.927" y1="82.6428" x2="154.238" y2="62.9991" gradientUnits="userSpaceOnUse">
<stop offset="0.00976562" stop-color="#CC1E13"/>
<stop offset="0.1505" stop-color="#D02519"/>
<stop offset="0.36" stop-color="#DC3A28"/>
<stop offset="0.6115" stop-color="#EF5B42"/>
<stop offset="0.6418" stop-color="#F25F45"/>
<stop offset="1" stop-color="#F89574"/>
</linearGradient>
<linearGradient id="paint34_linear" x1="177.189" y1="112.553" x2="184.472" y2="105.27" gradientUnits="userSpaceOnUse">
<stop stop-color="#ADE3FA"/>
<stop offset="0.7062" stop-color="#CFF1FF"/>
<stop offset="1" stop-color="#B8E7FC"/>
</linearGradient>
<linearGradient id="paint35_linear" x1="190.984" y1="110.454" x2="183.77" y2="117.668" gradientUnits="userSpaceOnUse">
<stop stop-color="#ADE3FA"/>
<stop offset="0.7062" stop-color="#CFF1FF"/>
<stop offset="1" stop-color="#B8E7FC"/>
</linearGradient>
<linearGradient id="paint36_linear" x1="201.414" y1="116.626" x2="190.08" y2="127.96" gradientUnits="userSpaceOnUse">
<stop stop-color="#3191C6"/>
<stop offset="0.3292" stop-color="#47B9E1"/>
<stop offset="0.4751" stop-color="#44B1DD"/>
<stop offset="0.7044" stop-color="#3A9AD1"/>
<stop offset="0.987" stop-color="#2B76BF"/>
<stop offset="1" stop-color="#2A74BE"/>
</linearGradient>
<linearGradient id="paint37_linear" x1="148.984" y1="32.4395" x2="148.984" y2="106.121" gradientUnits="userSpaceOnUse">
<stop offset="0.0103862" stop-color="#47B9E1"/>
<stop offset="0.2703" stop-color="#43B1DC"/>
<stop offset="0.6777" stop-color="#369ACD"/>
<stop offset="1" stop-color="#2A84BE"/>
</linearGradient>
<linearGradient id="paint38_linear" x1="130.778" y1="42.1982" x2="130.778" y2="98.6895" gradientUnits="userSpaceOnUse">
<stop offset="1.82535e-05" stop-color="#2A84BE"/>
<stop offset="0.3223" stop-color="#369ACD"/>
<stop offset="0.7297" stop-color="#43B1DC"/>
<stop offset="0.9896" stop-color="#47B9E1"/>
</linearGradient>
<linearGradient id="paint39_linear" x1="113.44" y1="16.7789" x2="159.729" y2="101.805" gradientUnits="userSpaceOnUse">
<stop offset="0.0103862" stop-color="#A5E0F4"/>
<stop offset="1" stop-color="#77BCDD"/>
</linearGradient>
<linearGradient id="paint40_linear" x1="124.461" y1="53.9904" x2="168.349" y2="97.8786" gradientUnits="userSpaceOnUse">
<stop stop-color="#ADE3FA"/>
<stop offset="0.9997" stop-color="#CFF1FF"/>
</linearGradient>
<linearGradient id="paint41_linear" x1="122.114" y1="51.6438" x2="144.3" y2="73.8299" gradientUnits="userSpaceOnUse">
<stop offset="0.0103862" stop-color="#A5E0F4"/>
<stop offset="1" stop-color="#77BCDD"/>
</linearGradient>
<linearGradient id="paint42_linear" x1="113.44" y1="16.7788" x2="159.729" y2="101.805" gradientUnits="userSpaceOnUse">
<stop offset="1.82535e-05" stop-color="#77BCDD"/>
<stop offset="0.9896" stop-color="#A5E0F4"/>
</linearGradient>
<radialGradient id="paint43_radial" cx="0" cy="0" r="1" gradientUnits="userSpaceOnUse" gradientTransform="translate(144.738 74.2689) scale(27.3907)">
<stop stop-color="#DCF3FF"/>
<stop offset="0.9833" stop-color="white" stop-opacity="0"/>
</radialGradient>
<clipPath id="clip0">
<rect width="210.9" height="174.578" fill="white"/>
</clipPath>
</defs>
</svg>
