<svg width="16" height="16" viewBox="0 0 16 16" fill="none" xmlns="http://www.w3.org/2000/svg">
<path d="M1.99032 0.990181C1.79139 0.990233 1.59699 1.04961 1.43198 1.16073C1.26697 1.27184 1.13884 1.42964 1.06399 1.61395C0.98913 1.79826 0.970941 2.00071 1.01175 2.19542C1.05255 2.39012 1.15049 2.56823 1.29305 2.70698L6.58602 7.99995L1.29305 13.2929C1.19708 13.3851 1.12046 13.4954 1.06767 13.6176C1.01489 13.7397 0.987001 13.8711 0.985647 14.0042C0.984294 14.1372 1.0095 14.2692 1.05979 14.3924C1.11008 14.5155 1.18444 14.6274 1.27852 14.7215C1.3726 14.8156 1.4845 14.89 1.60768 14.9402C1.73086 14.9905 1.86283 15.0157 1.99587 15.0144C2.12891 15.013 2.26034 14.9851 2.38247 14.9324C2.5046 14.8796 2.61497 14.803 2.70712 14.707L8.00008 9.41401L13.2931 14.707C13.3852 14.803 13.4956 14.8796 13.6177 14.9324C13.7398 14.9851 13.8713 15.013 14.0043 15.0144C14.1373 15.0157 14.2693 14.9905 14.3925 14.9402C14.5157 14.89 14.6276 14.8156 14.7217 14.7215C14.8157 14.6274 14.8901 14.5155 14.9404 14.3924C14.9907 14.2692 15.0159 14.1372 15.0145 14.0042C15.0132 13.8711 14.9853 13.7397 14.9325 13.6176C14.8797 13.4954 14.8031 13.3851 14.7071 13.2929L9.41415 7.99995L14.7071 2.70698C14.8516 2.56652 14.9503 2.38567 14.9903 2.18815C15.0302 1.99063 15.0096 1.78565 14.931 1.60007C14.8525 1.41448 14.7197 1.25695 14.5501 1.14812C14.3805 1.03929 14.182 0.98424 13.9806 0.990181C13.7208 0.997922 13.4742 1.1065 13.2931 1.29292L8.00008 6.58589L2.70712 1.29292C2.61393 1.19712 2.50248 1.12098 2.37937 1.06898C2.25625 1.01698 2.12396 0.990189 1.99032 0.990181Z" fill="#053B4F"/>
</svg>
