<svg width="45" height="44" viewBox="0 0 45 44" fill="none" xmlns="http://www.w3.org/2000/svg">
<g clip-path="url(#clip0)">
<path d="M22.5 20.1667C26.5443 20.1667 29.8333 16.8777 29.8333 12.8333C29.8333 8.789 26.5443 5.5 22.5 5.5C18.4557 5.5 15.1667 8.789 15.1667 12.8333C15.1667 16.8777 18.4557 20.1667 22.5 20.1667ZM22.5 9.16667C24.5222 9.16667 26.1667 10.8112 26.1667 12.8333C26.1667 14.8555 24.5222 16.5 22.5 16.5C20.4778 16.5 18.8333 14.8555 18.8333 12.8333C18.8333 10.8112 20.4778 9.16667 22.5 9.16667ZM44.5 41.4333L41.2 38.1333C42.1167 36.6667 42.6667 34.8333 42.6667 33C42.6667 27.8667 38.6333 23.8333 33.5 23.8333C28.3667 23.8333 24.3333 27.8667 24.3333 33C24.3333 38.1333 28.3667 42.1667 33.5 42.1667C35.3333 42.1667 37.1667 41.6167 38.6333 40.7L41.9333 44L44.5 41.4333ZM33.5 38.5C30.3833 38.5 28 36.1167 28 33C28 29.8833 30.3833 27.5 33.5 27.5C36.6167 27.5 39 29.8833 39 33C39 36.1167 36.6167 38.5 33.5 38.5ZM20.8133 34.8333H9.66667V33.9167C9.66667 32.4372 15.5242 29.7587 21.1928 29.381C21.5852 28.0427 22.1883 26.7978 22.9675 25.6795C22.8117 25.6758 22.6485 25.6667 22.5 25.6667C16.7415 25.6667 6 28.501 6 33.9167V38.5H21.9188C21.3762 37.3597 20.9985 36.1295 20.8133 34.8333Z" fill="#EAE4FF"/>
<path opacity="0.3" d="M22.5 7.33331C21.7777 7.33331 21.0625 7.47558 20.3952 7.75198C19.7279 8.02838 19.1216 8.4335 18.6109 8.94423C18.1002 9.45495 17.695 10.0613 17.4186 10.7286C17.1422 11.3958 17 12.111 17 12.8333C17 13.5556 17.1422 14.2708 17.4186 14.9381C17.695 15.6054 18.1002 16.2117 18.6109 16.7224C19.1216 17.2331 19.7279 17.6382 20.3952 17.9146C21.0625 18.1911 21.7777 18.3333 22.5 18.3333C23.2222 18.3333 23.9374 18.1911 24.6047 17.9146C25.272 17.6382 25.8783 17.2331 26.3891 16.7224C26.8998 16.2117 27.3049 15.6054 27.5813 14.9381C27.8577 14.2708 28 13.5556 28 12.8333C28 12.111 27.8577 11.3958 27.5813 10.7286C27.3049 10.0613 26.8998 9.45495 26.3891 8.94423C25.8783 8.4335 25.272 8.02838 24.6047 7.75198C23.9374 7.47558 23.2222 7.33331 22.5 7.33331ZM20.6666 33C20.6666 31.1245 21.0773 29.3498 21.8015 27.7438C9.23581 28.8071 7.83331 33 7.83331 33V36.6666H21.2056C20.8591 35.5043 20.6666 34.2741 20.6666 33Z" fill="#EAE4FF"/>
</g>
<defs>
<clipPath id="clip0">
<rect width="44" height="44" fill="white" transform="translate(0.5)"/>
</clipPath>
</defs>
</svg>
