<svg width="45" height="44" viewBox="0 0 45 44" fill="none" xmlns="http://www.w3.org/2000/svg">
<path d="M27.9432 9.16667L16.9432 5.5L7.15317 9.416C6.4565 9.69467 6 10.3675 6 11.1173V36.784C6 38.0802 7.309 38.9675 8.5135 38.4853L17.0568 35.068L28.0568 38.7347L37.8468 34.8187C38.5435 34.54 39 33.8672 39 33.1173V7.45067C39 6.1545 37.691 5.26717 36.4865 5.74933L27.9432 9.16667ZM35.3333 31.8762L27.9432 34.8315L16.9432 31.1648L9.66667 34.0762V12.3585L17.0568 9.40317L28.0568 13.0698L35.3333 10.1585V31.8762Z" fill="#FFE0E7"/>
<path d="M20.6667 27.5H24.3333V31.1666H20.6667V27.5ZM22.5 16.5C24.3132 16.5 24.3333 18.315 24.3333 18.3333C24.3333 20.2656 20.6667 22 20.6667 25.6666H24.3333C24.3333 23.859 28 20.9403 28 18.3333C28 15.6291 25.943 12.8333 22.5 12.8333C18.749 12.8333 17 16.115 17 18.3333H20.6667C20.6667 18.0308 20.9857 16.5 22.5 16.5Z" fill="#FFE0E7"/>
<path opacity="0.3" d="M7.83331 11L17 7.33331L28 11L37.1666 7.33331V33L28 36.6666L17 33L7.83331 36.6666V11Z" fill="#FFE0E7"/>
</svg>
